<?xml version="1.0" encoding="iso-8859-1"?>
<!-- Uploaded to: SVG Repo, www.svgrepo.com, Generator: SVG Repo Mixer Tools -->
<svg fill="#000000" height="800px" width="800px" version="1.1" id="Layer_1" xmlns="http://www.w3.org/2000/svg" xmlns:xlink="http://www.w3.org/1999/xlink" 
	 viewBox="0 0 512 512" xml:space="preserve">
<g>
	<g>
		<path d="M0,0v512h512V0H0z M469.333,341.333c0,11.776-9.536,21.333-21.333,21.333s-21.333-9.557-21.333-21.333V115.499
			L72.832,469.333c-8.341,8.341-21.824,8.341-30.165,0s-8.341-21.824,0-30.165L396.501,85.333H170.667
			c-11.797,0-21.333-9.557-21.333-21.333s9.536-21.333,21.333-21.333H448c2.773,0,5.547,0.576,8.149,1.643
			c5.227,2.176,9.387,6.315,11.541,11.541c1.067,2.603,1.643,5.376,1.643,8.149V341.333z"/>
	</g>
</g>
</svg>