<?xml version="1.0" encoding="iso-8859-1"?>
<!-- Uploaded to: SVG Repo, www.svgrepo.com, Generator: SVG Repo Mixer Tools -->
<svg fill="#000000" height="800px" width="800px" version="1.1" id="Layer_1" xmlns="http://www.w3.org/2000/svg" xmlns:xlink="http://www.w3.org/1999/xlink" 
	 viewBox="0 0 512 512" xml:space="preserve">
<g>
	<g>
		<path d="M0,0v512h512V0H0z M469.333,72.832L115.499,426.667h225.835c11.797,0,21.333,9.557,21.333,21.333
			s-9.536,21.333-21.333,21.333H64c-2.773,0-5.547-0.576-8.149-1.643c-5.227-2.176-9.387-6.315-11.541-11.541
			c-1.067-2.603-1.643-5.376-1.643-8.149V170.667c0-11.776,9.536-21.333,21.333-21.333s21.333,9.557,21.333,21.333v225.835
			L439.168,42.667c8.341-8.341,21.824-8.341,30.165,0C477.675,51.008,477.675,64.491,469.333,72.832z"/>
	</g>
</g>
</svg>