<svg width="1208" height="92" viewBox="0 0 1208 92" fill="none" xmlns="http://www.w3.org/2000/svg">
<g filter="url(#filter0_d_328_11952)">
<path d="M4.5 5C4.5 2.51472 6.51472 0.5 9 0.5H1199C1201.49 0.5 1203.5 2.51472 1203.5 5V54C1203.5 56.4853 1201.49 58.5 1199 58.5H885.434C884.403 58.5 883.393 58.7897 882.519 59.336L844.951 82.816C844.236 83.263 843.409 83.5 842.566 83.5H365.434C364.591 83.5 363.764 83.263 363.049 82.816L325.481 59.336C324.607 58.7897 323.597 58.5 322.566 58.5H9C6.51472 58.5 4.5 56.4853 4.5 54V5Z" stroke="#43FFFF" shape-rendering="crispEdges"/>
</g>
<defs>
<filter id="filter0_d_328_11952" x="0" y="0" width="1208" height="92" filterUnits="userSpaceOnUse" color-interpolation-filters="sRGB">
<feFlood flood-opacity="0" result="BackgroundImageFix"/>
<feColorMatrix in="SourceAlpha" type="matrix" values="0 0 0 0 0 0 0 0 0 0 0 0 0 0 0 0 0 0 127 0" result="hardAlpha"/>
<feOffset dy="4"/>
<feGaussianBlur stdDeviation="2"/>
<feComposite in2="hardAlpha" operator="out"/>
<feColorMatrix type="matrix" values="0 0 0 0 0 0 0 0 0 0 0 0 0 0 0 0 0 0 0.25 0"/>
<feBlend mode="normal" in2="BackgroundImageFix" result="effect1_dropShadow_328_11952"/>
<feBlend mode="normal" in="SourceGraphic" in2="effect1_dropShadow_328_11952" result="shape"/>
</filter>
</defs>
</svg>
